<?xml version="1.0" encoding="UTF-8"?>
<svg xmlns="http://www.w3.org/2000/svg" xmlns:xlink="http://www.w3.org/1999/xlink" viewBox="0 0 89.93 51.93">
  <defs>
    <style>
      .cls-1 {
        fill: none;
      }

      .cls-2 {
        clip-path: url(#clippath);
      }

      .cls-3 {
        fill: #edbf70;
      }

      .cls-4 {
        fill: #c9c9c9;
      }

      .cls-5 {
        clip-path: url(#clippath-1);
      }

      .cls-6 {
        mix-blend-mode: darken;
      }

      .cls-7 {
        isolation: isolate;
      }
    </style>
    <clipPath id="clippath">
      <rect class="cls-1" width="89.93" height="51.93"/>
    </clipPath>
    <clipPath id="clippath-1">
      <rect class="cls-1" y="0" width="89.93" height="51.93"/>
    </clipPath>
  </defs>
  <g class="cls-7">
    <g id="Layer_2" data-name="Layer 2">
      <g id="Layer_1-2" data-name="Layer 1" class="cls-6">
        <g id="Artwork_59" data-name="Artwork 59">
          <g class="cls-2">
            <g class="cls-5">
              <path class="cls-3" d="M41.34,26.21c0,3.06-.3,5.88-.87,8.47-.58,2.63-1.62,5.2-3.1,7.7-.98,1.63-2.08,2.94-3.31,3.94-1.23,1-2.56,1.76-3.97,2.3-1.42,.54-2.91,.88-4.46,1.04-1.56,.16-3.13,.24-4.71,.24-1.25,0-2.4-.02-3.45-.07-1.04-.04-1.96-.12-2.75-.21V1.95c.88-.05,1.8-.09,2.75-.14,.95-.05,2.01-.07,3.17-.07,3.9,0,7.18,.58,9.83,1.74,2.65,1.16,4.77,2.8,6.38,4.92,1.61,2.11,2.76,4.67,3.45,7.67s1.04,6.33,1.04,10c0-2.6,.31-4.93,.91-7.01,.6-2.11,1.34-3.96,2.2-5.54,.37-.68,.74-1.31,1.13-1.9-.02-.04-.05-.08-.08-.12-1.33-2.05-3.03-3.84-5.09-5.4-2.07-1.56-4.52-2.8-7.35-3.73-.98-.32-1.9-.59-2.76-.8-.86-.21-1.76-.37-2.72-.49-.95-.12-1.98-.2-3.07-.24-1.09-.05-2.34-.07-3.73-.07-.65,0-1.3,.01-1.95,.04-.65,.02-1.3,.04-1.95,.04-.65,.05-1.3,.08-1.95,.1-.65,.02-1.3,.04-1.95,.04H0v.97H7.74V49.63H0v.98H11.85c.69,0,1.43,0,2.19,.04,.77,.02,1.54,.06,2.34,.1,.79,.05,1.58,.08,2.37,.1,.79,.02,1.53,.04,2.23,.04,1.63,0,3.07-.02,4.32-.07,1.26-.05,2.4-.14,3.45-.28,1.05-.13,2.07-.35,3.07-.63,1-.28,2.05-.67,3.17-1.18,2-.84,3.87-1.94,5.61-3.31,1.74-1.37,3.26-2.99,4.57-4.88,.09-.13,.19-.27,.27-.41-.65-1.03-1.26-2.11-1.81-3.25-1.53-3.16-2.3-6.72-2.3-10.67"/>
              <path class="cls-4" d="M68.67,32.14v.97h8.99v5.86c0,2.04-.36,3.82-1.08,5.34-.72,1.51-1.65,2.75-2.79,3.73-1.14,.98-2.43,1.71-3.87,2.2-1.45,.49-2.89,.73-4.32,.73-2.37,0-4.3-.24-5.79-.73-1.49-.49-2.93-1.36-4.32-2.62-1.25-1.12-2.27-2.46-3.07-4.04-.79-1.58-1.4-3.3-1.85-5.16-.44-1.86-.76-3.83-.94-5.92-.19-2.09-.28-4.18-.28-6.27,0-3.07,.2-6.11,.59-9.14,.4-3.02,1.19-5.73,2.37-8.12,1.18-2.39,2.83-4.32,4.95-5.79,2.12-1.46,4.92-2.2,8.4-2.2,2.93,0,5.34,.51,7.22,1.53,1.88,1.02,3.39,2.28,4.53,3.76,1.14,1.49,1.98,3.04,2.51,4.67,.54,1.63,.9,3.04,1.08,4.25h.77V1.25h-1.04c-.37,.47-.76,.83-1.15,1.08-.4,.26-1.06,.38-1.99,.38-.84,0-1.59-.14-2.26-.41-.68-.28-1.43-.59-2.27-.94-.84-.35-1.82-.67-2.96-.94C68.96,.14,67.51,0,65.74,0,62.3,0,59.23,.65,56.54,1.95c-2.7,1.3-5.09,3-7.18,5.09-.6,.6-1.36,1.44-2.26,2.51-.52,.61-1.03,1.3-1.53,2.07,1.28,2.01,2.23,4.2,2.85,6.57,.63,2.42,.94,4.95,.94,7.6,0,3.07-.37,5.82-1.12,8.26-.69,2.26-1.62,4.29-2.8,6.07,1.17,1.83,2.49,3.49,3.98,4.98,2.37,2.37,4.84,4.1,7.39,5.19,2.55,1.09,5.48,1.64,8.78,1.64,2.18,0,4.04-.22,5.57-.66,1.54-.44,2.87-.94,4.01-1.5,1.13-.56,2.13-1.06,2.99-1.5,.86-.44,1.71-.66,2.55-.66,.69,0,1.21,.09,1.53,.28,.32,.18,.74,.54,1.26,1.04h.84v-15.83h5.57v-.97h-21.26Z"/>
            </g>
          </g>
        </g>
      </g>
    </g>
  </g>
</svg>